<svg version="1.2" xmlns="http://www.w3.org/2000/svg" viewBox="0 0 392 393" width="392" height="393">
	<title>stakeworld_adobe-svg</title>
	<style>
		.s0 { fill: #0e4593 } 
		.s1 { fill: #0a62ae } 
		.s2 { fill: #0f72bb } 
		.s3 { fill: #104794 } 
		.s4 { fill: #132f7d } 
		.s5 { fill: #134186 } 
		.s6 { fill: #0d4a96 } 
		.s7 { fill: #0b4d9a } 
		.s8 { fill: #0d4a97 } 
		.s9 { fill: #0e4a97 } 
		.s10 { fill: #0c4d9a } 
		.s11 { fill: #0a5ba8 } 
		.s12 { fill: #0c71be } 
		.s13 { fill: #0b52a0 } 
		.s14 { fill: #0a60ad } 
		.s15 { fill: #0b52a1 } 
		.s16 { fill: #0d4f9b } 
		.s17 { fill: #095ea9 } 
		.s18 { fill: #0b5aa6 } 
		.s19 { fill: #0e72bc } 
		.s20 { fill: #0c4e9b } 
		.s21 { fill: #0e6cb6 } 
		.s22 { fill: #0b5ca7 } 
		.s23 { fill: #127bc6 } 
		.s24 { fill: #1169b2 } 
		.s25 { fill: #0d76c3 } 
		.s26 { fill: #0961ab } 
		.s27 { fill: #0a54a8 } 
		.s28 { fill: #0a59a5 } 
		.s29 { fill: #0d539f } 
		.s30 { fill: #0953aa } 
		.s31 { fill: #104591 } 
		.s32 { fill: #104587 } 
		.s33 { fill: #0d5d9c } 
		.s34 { fill: #0f5e9c } 
		.s35 { fill: #0d4f9d } 
		.s36 { fill: #0c56a3 } 
		.s37 { fill: #0a54a2 } 
	</style>
	<path id="Layer" class="s0" d="m215 394c-14.4 0-28.7 0-43.5-0.4-0.9-0.8-1.4-1.4-1.9-1.5-26.5-3.8-51.4-11.6-74-26.7-16.9-11.2-33.2-22.8-46.6-38.1-3.8-4.3-6.8-9.5-9.7-14.4 2.7-0.4 4.9-0.7 7.2-0.9 4.4-0.4 9-0.8 10.7-5.7 2-5.3 5.5-7.2 11.2-6.3 3.6 2 6.7 4.6 10.3 5.6 4 1.2 8.5 1.5 12.6 1 1.3-0.2 1.8-4.6 3.3-6.5 2.1-2.8 4.4-5.5 7.3-7.4 2.7-1.7 6.1-2.6 9.3-3.2 2.8-0.5 5.8-0.5 8.6 0 4 0.8 7.9 2.3 12 3.8 0.4 1.1 0.5 2.4 1 2.6 8.2 3.2 10.1 10.8 13 17.8 0.9 2.2 1.9 5.2 3.7 6.1 4.2 2.2 5.7 5.6 6.7 9.7 1.1 4.2 2.7 8.2 3.7 12.3 0.4 1.9 0.5 4.3-0.3 6-3.9 8-8.1 15.9-12.3 24.1 3.3 1.5 6.7 2.8 10 4.4 3.2 1.5 7.1 2.6 9.5 5 2.8 2.7 5.7 3.4 9.3 3.6 5.4 0.2 11 0.3 16.3 1.4 7.7 1.6 14.3-2 15.5-9.6 0.6-4.2 0.6-8.4 1.1-12.6 0.1-1.2 0.3-2.8 1.2-3.5 3.9-3.5 7.8-7.1 12.2-10 3-1.9 5.8-3.3 6.6-7.3 0.2-1.2 2.3-2.5 3.7-2.9 5.6-1.6 11.2-2.8 16.9-4.3 1.2-0.3 2.8-0.7 3.4-1.6 5.6-7.8 6.2-16.7 4.2-25.6-0.7-2.8-3.1-5.5-5.3-7.7-3.1-3.2-7.3-5.5-10.1-8.9-9.1-11.2-8.9-11.3-22.9-9.1-0.1 0-0.3 0.1-0.4 0.1-4.1 0.5-6.7-1.3-7.4-5.4-1.2-6.6-1.9-13.4-3.2-20-0.4-1.9-1.9-3.5-2.9-5.7-2.7-14.3 2.7-23 16.7-26.1 0.4-0.1 0.9-0.3 1.3-0.6 2.8-1.8 6-3.2 8.2-5.5 3.6-3.9 6.6-8.3 9.9-12.6 6.2-8.1 13.9-13.4 24.4-14.5 1.3-0.1 3.1-2.3 3.4-3.7 1-5.4 1.4-10.8 2.1-16.6 1.4-2.4 2.7-4.5 4.3-6.5 4.8 3 9.4 5.6 13.7 8.6 2.6 1.8 4.6 1.5 6.5-0.7 2.6-3 5.1-6 7.9-8.8 5.8-6 5.9-5.9 12.9-1.6 1.5 0.9 3.2 1.6 4.9 2.9 0.7 6.2-3 12.2 0.5 17.9 1.9 3 1.9 6.1 0.9 9.4-0.7 2.3-1.7 5.6-0.7 7 5.3 6.9 8.3 14.5 9 23.7 3.1-0.5 5.7-0.6 8.2-1.4 5.3-1.6 10.6-3.6 15.9-5.4 4.1-1.4 6.9 0.3 7.8 4 1.4 5.4 3.1 10.8 5.1 15.9 0.6 1.5 2.7 2.5 4.4 3.8 0.5 0.3 0.9 0.4 1.4 0.3 0.1-0.2 0.5-0.4 0.5-0.4 0 0 0.4 0.1 0.6 0.4 3.5 3.7 6.9 7.1 10.4 10.7-0.7 3.6-1.2 7-2.3 10.2-6 18.1-14.9 34.6-26.2 50-11.6 15.9-25.3 30-40.9 41.9-18.5 14-38.8 24.8-61.2 31.1-11.9 3.4-23.8 7.3-36.5 6.5-1-0.1-2.1 1.2-3.1 1.9z"/>
	<path id="Layer" class="s1" d="m1 172.5c4.2-1.9 0.9-5.4 2.4-8 6.9 4.1 17.1 4.8 16.9 15.5 8.5 0 16.6 0 24.7 0 0.8 0.6 1.6 1.3 2.7 2.5-1.3 9.5-3.1 18-13.8 20.6-5 1.2-6.1 4.7-4 9.1 2.3 4.6 0.5 7.9-3.3 10.5-3.6 2.4-7.1 4.9-11 7.3-4.4-1.4-8.4-2.7-12.4-4-0.5-1.1-1-2.2-1.8-3.1-0.4-16.6-0.4-33.3-0.4-50.4z"/>
	<path id="Layer" class="s2" d="m203.5 1c1.2 4.2 1.8 8.4 2.8 12.5 0.8 3 0.1 5.1-2.8 7.2-5.2 0.6-9.9 1-14.5 1.3-5.7-3.5-7.4-8.4-5.3-14.7 0.5-1.7 0.2-3.6 0.3-5.9 6.4-0.4 12.7-0.4 19.5-0.4z"/>
	<path id="Layer" class="s3" d="m393 175c0 14 0 28-0.3 42.5-2-0.2-3.6-0.9-5.3-1.8-1.3-2.1-2.8-3.8-3.5-5.8-0.7-1.7-1-3.8-0.8-5.7 0.4-3.2 1.6-6.4 1.8-9.7 0.1-3.4-0.7-6.8-1-10.6 0.3-7.9 1.3-8.9 9.1-8.9z"/>
	<path id="Layer" class="s4" d="m387.5 216c1.6 0.6 3.2 1.3 5.2 2 0.3 1.4 0.3 2.8 0.3 4.6-1 3.2-2.2 6-2.9 8.9-1.6 6.7-3 13.4-4.7 20.4-3.7-3.1-7.1-6.5-10.6-10.5 4.2-8.9 8.5-17.2 12.7-25.4z"/>
	<path id="Layer" class="s5" d="m393 174.6c-7.8 0.4-8.8 1.4-9.4 9.2-4.3-3-8.3-6.2-12.3-9.5-4.3-3.5-5.3-10.3-2.3-14.9 0.4 1.2 0.5 2.7 1.1 2.9 7.1 2 12.4 9 20.7 7.7 0.5 0.4 1 0.8 1.9 1.1 0.3 1 0.3 2 0.3 3.5z"/>
	<path id="Layer" class="s6" d="m205 252.2c-5 1.5-10 2.6-15 3.5-1.1 0.2-2.3-0.1-3.3-0.4-6.3-1.7-12.6-3.5-19.3-5.7 0.9-9.2 2.3-17.8 3.6-26.4 8.1 1.3 12.7-2.3 14.1-10.2 0.2-0.8 0.6-1.5 1.3-2.8 3-2.1 6.4-5.5 8.2-4.8 7.5 2.9 14.8-0.3 22.2 0.5 3.2 0.4 5.6-1 6.6-4.6 2-6.5 4.4-12.9 7-19.3 1.8-0.3 3.2-0.7 5-0.8 3 0 5.9 0.3 8.5-0.4 9.1-2.4 18.1-5.2 27.1-7.8-0.7 5.4-1.1 10.8-2.1 16.2-0.3 1.4-2.1 3.6-3.4 3.7-10.5 1.1-18.2 6.4-24.4 14.5-3.3 4.3-6.3 8.7-9.9 12.6-2.2 2.3-5.4 3.7-8.2 5.5-0.4 0.3-0.9 0.5-1.3 0.6-14 3.1-19.4 11.8-16.7 26.1z"/>
	<path id="Layer" class="s7" d="m39.3 312.9c-3.7-4.2-7.1-8.5-10.1-13-0.8-1.2-0.2-3.4 0-5.5 8.5-4.9 17-8.9 21.2-18.4 6.7-3.4 13.2-6.7 19.9-10.2 0.9-0.9 1.7-1.6 2-2.5 1.4-5.3 5-6 9.6-4.8 0.8 0.2 1.6 0.4 2.4 0.4 7.9-0.3 15.8-0.6 23.7-0.5 0.8 10.8-5.7 14.4-14.2 14.6-3.1 0-6.3-0.2-9.4 0.1-1.1 0.1-3 1.6-2.9 1.8 1.6 4.1-2.1 6-3.6 8.6-3.2 5.6-6.6 11-9.9 16.5-5.3-0.9-8.8 1-10.8 6.3-1.7 4.9-6.3 5.3-10.7 5.7-2.3 0.2-4.5 0.5-7.2 0.9z"/>
	<path id="Layer" class="s8" d="m68.4 300c2.9-5.5 6.3-10.9 9.5-16.5 1.5-2.6 5.2-4.5 3.6-8.6-0.1-0.2 1.8-1.7 2.9-1.8 3.1-0.3 6.3-0.1 9.4-0.1 8.5-0.2 15-3.8 14.5-14.8 1.7-2.8 3.2-5 5.1-7.2 7.2 3.4 14 6.8 20.9 10.1-5.2 10-4.6 20.5-2.6 31.5-4-0.8-7.9-2.3-11.9-3.1-2.8-0.5-5.8-0.5-8.6 0-3.2 0.6-6.6 1.5-9.3 3.2-2.9 1.9-5.2 4.6-7.3 7.4-1.5 1.9-2 6.3-3.3 6.5-4.1 0.5-8.6 0.2-12.6-1-3.6-1-6.7-3.6-10.3-5.6z"/>
	<path id="Layer" class="s9" d="m320 137c2.6 1.9 6.6 3.3 7.6 5.9 1.8 5 2.2 10.6 2.8 16.1 0.1 0.9-2 2.3-3.3 3.2-1.7 1.3-3.6 2.3-5.7 3.6-1.9-0.6-3.6-1.3-5.1-2.2-7-4.3-7.1-4.4-12.9 1.6-2.8 2.8-5.3 5.8-7.9 8.8-1.9 2.2-3.9 2.5-6.5 0.7-4.3-3-8.9-5.6-13.7-8.8-0.3-0.6-0.3-0.7-0.3-1.3 0.4-2.4 0.8-4.3 1.1-6.3 0.6-3.8 2.4-5.6 6.7-5.4 4.6 0.2 9.3-0.3 13.8-1.1 4.3-0.8 9.4 0.2 10.8-6.9 1.9-9.9 2.2-7.6 10.6-7.9q1 0 2 0z"/>
	<path id="Layer" class="s10" d="m275 165c0 0.2 0 0.3 0 0.7-1.3 2.4-2.6 4.5-4 6.9-9 3-18 5.8-27.1 8.2-2.6 0.7-5.5 0.4-8.5 0.1-0.4-0.4-0.4-0.9-0.1-1.1 0.9-1.7 1.3-3.2 1.9-4.7 1-2.6 1.5-6.8 3.2-7.3 6.5-2.2 12.7-5.7 20.1-4.2 4.7 0.9 9.7 1 14.5 1.4z"/>
	<path id="Layer" class="s4" d="m372.3 241.4q0.2-0.2 1.1 0.3-0.3 0.2-1.1-0.3z"/>
	<path id="Layer" class="s11" d="m319 81.1c-0.3 0.7-0.6 1.5-1.4 2.6-4.2-1.2-7.9-2.5-11.5-4.2-3.5-1.6-5.4-1.1-7.4 2.6-1.7 3.1-4.8 6.9-7.8 7.4-8.2 1.4-11.7 5.6-11.9 13.5 0 0.5 0 1-0.1 1.5-0.6 2.7-1.8 4-4.9 3.1-4-1.2-8.1-1.8-12.1-2.8-6.8-1.6-7.6-1.6-9.6 5.2-1.4 4.5-4.4 5.9-8.5 6-3.5 0.1-7 0-10.5 0-3.6-0.1-5.7 1.2-5.3 5.3 0.2 1.9 0.4 4-0.1 5.9-0.4 1.7-1.4 4-2.7 4.5-7.6 3.3-12.7 8.1-12.9 16.8-0.1 0.5-0.2 1-0.3 1.8-3.4 4.3-5.7 10.1-11.9 9.5-5.4-0.4-10.1 0.5-14.8 2.5-1.2 0.5-2.6 0.7-3.9 0.6-5.3-0.2-10.5-0.7-15.8-1-1.8-7.1-3.6-14.2-5.2-21.4-0.2-0.8 0.9-2 1.7-2.7 0.5-0.5 1.5-0.7 2.3-0.9 12.4-1.8 18.8-9.6 21.7-21.7 3.2 0.9 5.9 1.6 8.2 3.1 5.8 3.5 12.8 0.5 13.6-6.4 0.6-4.7 0.8-9.5 1.1-14.2 4.9-1.2 9.7-2.4 14.5-3.7 1.8-0.5 3.5-1.6 5.9-2.7 5.1-0.3 9.6-0.3 14.1-0.3 4.9 0 11-5.4 11.5-10.4 0.4-5 0.7-10.1 1-15.2 0.2-4.4 1.5-5.3 5.2-3.3 4.8 2.7 9.2 5.9 14.1 8.3 2 1 5.6 1.4 7.1 0.3 4.3-3 8.7-3.9 14-3.7 1.2 0.4 2.7 0.5 2.9 1.1 1.8 4.9 6.2 6 10.3 7.8 3.3 1.4 6.3 3.4 9.4 5.2z"/>
	<path id="Layer" class="s12" d="m8.9 140c0.7-2.9 0.9-6.1 2.2-8.8 4.5-10 9.4-19.8 14.1-29.7 2.4-5 4.3-10.3 7.2-15 2.4-3.8 5.9-6.9 8.9-10.3 5.9-6.8 11.3-14 17.6-20.4 5.5-5.4 11.8-9.9 17.9-14.7 13.5-10.7 28.2-19.7 44.1-26.3 12.8-5.4 26-9.9 39.9-11.4 0.2 0 0.3 0.2 0.7 0.6 0.4 2.5 0.5 4.9 0.5 7.2 0 5.7-1.1 6.8-7 6.8-5.3 0-10.6-0.6-16 2.9-1.8 0.1-3 0.4-3.7-0.1-7.8-5-12.3 0-16.9 5.2-2.2 2.6-4.9 4.7-7.4 7-0.6 1.6-1.8 3.1-1.9 4.8-0.7 6.9-3.8 12.5-8.8 17.6-3.5-1.5-7.4-2.6-10.6-4.8-7.4-5-12.8-0.5-18.8 2.9-5.6 3.1-5.3 8.8-6.9 13.7-0.6 1.6-1.8 3.3-3.1 4.3-2.2 1.8-4.6 3.2-7.1 4.4-4.5 2.3-7.3 4.9-7.2 10.8 0.1 3.4-2.9 7.2-5.4 10.1-3.2 3.8-3.2 7 0 10.6 1.4 1.7 2.5 3.5 3.9 5.5-3.4 5.7-6.6 11.7-10.5 17.2-1.5 2-4.6 2.9-7 4.2-1.8 1.1-3.7 2-6.1 3.4-4.6 1-8.6 1.7-12.6 2.3z"/>
	<path id="Layer" class="s13" d="m165.4 162.1c5.5 0.1 10.7 0.6 16 0.8 1.3 0.1 2.7-0.1 3.9-0.6 4.7-2 9.4-2.9 14.8-2.5 6.2 0.6 8.5-5.2 12.2-9.5 1.5-2.9 2.8-5.3 3.6-7.8 1.9-6.7 11-10.3 16.7-6.8 3.3 2.1 6.9 3.6 10.4 5.7-0.3 1.8-0.3 3.5-1.1 4.7-4.5 7.3-6.6 15-5.2 23.8 0.5 3.2-1.1 6.7-1.7 10.1 0 0 0 0.5 0 0.7-1.4 0.6-2.8 1-5 1.3-5.3-1.1-9.8-2.3-14.3-3.1-1.8-0.4-4.5-0.3-5.4 0.7-3.6 4.2-8.5 4.7-13.3 6.1-2.6 0.7-4.7 3-7.1 4.5-1.5 1-2.9 2.5-4.4 2.7-6.1 0.6-12.2 0.8-18.4 1.1-8.7-10-7.9-20.6-1.7-31.9z"/>
	<path id="Layer" class="s14" d="m296 67c-4.9-0.2-9.3 0.7-13.6 3.7-1.5 1.1-5.1 0.7-7.1-0.3-4.9-2.4-9.3-5.6-14.1-8.3-3.7-2-5-1.1-5.2 3.3-0.3 5.1-0.6 10.2-1 15.2-0.5 5-6.6 10.4-11.5 10.4-4.5 0-9 0-13.9 0-1.8-3.4-3.1-6.8-4.4-10.9 1.3-5.7 2.6-10.6 3.8-15.6 8-4 16.3-6.7 25.3-6.8 0.6-0.1 1.4 0 1.9-0.3 9.6-6 18-13.1 22-24.2 0.4-1 0.5-2.2 1.1-3.8 4.5-1.7 8.7-3.1 12.8-4.5 2.1 1.3 4.2 2.6 6.6 4.4 0.7 1.1 1.1 1.7 1.3 2.3 3.4 7.4 6.7 14.9 9.6 22.4-6.9 2.2-12.2 5.5-13.6 13z"/>
	<path id="Layer" class="s15" d="m113 251c-1.5 2.2-3 4.4-4.7 6.8-8.2 0.5-16.1 0.8-24 1.1-0.8 0-1.6-0.2-2.4-0.4-4.6-1.2-8.2-0.5-9.6 4.8-0.3 0.9-1.1 1.6-2 2.1 0.4-5.6 1-11 1.8-16.7 4.6-5.1 8.7-9.9 9-16.9 0-0.8 0.7-1.7 1.4-2.4 5.4-6.5 11-13 16.5-19.4 0 0 0.4-0.1 1 0.1 6.1 3.7 11.7 7.3 17.9 11.3 1.2-3 2.2-5.4 3.1-7.8 2-5.2 4-10.4 6.3-15.8 2.8-1.3 5.3-2.6 7.8-3.8 4.3 6.7 8.6 13.5 12.7 20.8-1.2 1.1-2 2-3.1 2.4-6.7 2.6-13.6 5-20.2 7.9-1.9 0.8-4 2.6-4.6 4.4-2.6 7.1-4.7 14.3-6.9 21.5z"/>
	<path id="Layer" class="s16" d="m113.4 251c1.8-7.2 3.9-14.4 6.5-21.5 0.6-1.8 2.7-3.6 4.6-4.4 6.6-2.9 13.5-5.3 20.2-7.9 1.1-0.4 1.9-1.3 3.1-2.1 2 0.2 4.1 1.4 5.4 0.8 5.4-2.2 9.1 0.4 12.8 3.7 1.4 1.2 2.9 2.2 4.7 3.5-1 8.7-2.4 17.3-3.7 26.4-10.5 4.6-20.4 10.4-32.3 11.6-7.3-3.3-14.1-6.7-21.3-10.1z"/>
	<path id="Layer" class="s17" d="m16 230c3.5-2.4 7-4.9 10.6-7.3 3.8-2.6 5.6-5.9 3.3-10.5-2.1-4.4-1-7.9 4-9.1 10.7-2.6 12.5-11.1 14-20.5 3.6-0.7 7-1.3 10.5-1.4 1.5-0.1 3.2 0.5 4.5 1.2 1.7 1 3 2.7 4.7 3.6 5.5 2.8 7.4 7.2 6.3 13.8-4.1 6.7-6.1 14-15.2 15.5-5.2 0.8-9.8 5-14.5 7.9-1.4 0.8-2.9 2.6-3.1 4-0.6 5.9-0.8 11.9-1.3 17.9-0.5 0.3-0.7 0.6-1.3 0.9-5.8-0.7-11.1-1.3-16.5-2.4-2-4.8-4-9.2-6-13.6z"/>
	<path id="Layer" class="s18" d="m40 245c0.3-5.9 0.5-11.9 1.1-17.8 0.2-1.4 1.7-3.2 3.1-4 4.7-2.9 9.3-7.1 14.5-7.9 9.1-1.5 11.1-8.8 15.2-15 8.3 2.8 16.5 6 24.9 9.4-5.3 6.7-10.9 13.2-16.3 19.7-0.7 0.7-1.4 1.6-1.4 2.4-0.3 7-4.4 11.8-9.3 16.9-6.6-2.2-12.6-4.5-19.3-3.8-4.1 0.4-8.3 0.1-12.5 0.1z"/>
	<path id="Layer" class="s19" d="m141 45c7.1 0.4 14.3 0.7 21.9 1.1-1.3 8.7-2.5 17.1-4 25.5-0.2 1.1-1.5 2.4-2.6 2.9-2.2 1.1-4.6 1.9-7 2.3-3.7 0.6-5.7 2.8-7.4 5.9-0.7 1.3-2.2 3.1-3.5 3.2-5.1 0.6-10.3 0.8-15.5 0.8-1.4 0-3.3-0.9-4.1-1.9-3.1-4.1-5.9-8.4-9.4-13.5 7.6-4.2 14.9-8.1 22.1-12.4 1.3-0.8 2.1-2.7 2.7-4.2 0.9-2.2 1.4-4.6 2.3-7.3 1.6-1.1 3.1-1.8 4.5-2.4z"/>
	<path id="Layer" class="s20" d="m167 194.4c6.3-0.7 12.4-0.9 18.5-1.5 1.5-0.2 2.9-1.7 4.4-2.7 2.4-1.5 4.5-3.8 7.1-4.5 4.8-1.4 9.7-1.9 13.3-6.1 0.9-1 3.6-1.1 5.4-0.7 4.5 0.8 9 2 13.9 3.1-1.8 6.4-4.2 12.8-6.2 19.3-1 3.6-3.4 5-6.6 4.6-7.4-0.8-14.7 2.4-22.2-0.5-1.8-0.7-5.2 2.7-8.2 4.4-5.4-2.5-10.5-5.4-15.8-7.6-3.9-1.6-5.2-3.6-3.6-7.8z"/>
	<path id="Layer" class="s21" d="m8.9 140.4c4-1 8-1.7 12.4-2.4 1.1 1.3 1.9 2.6 2.4 4 2.7 8 6.9 14.1 16.1 15.5 1.2 0.1 2.9 1.9 3 3.1 1 6.1 1.5 12.3 2.2 19-8.1 0.4-16.2 0.4-24.7 0.4 0.2-10.7-10-11.4-16.8-16 1.6-7.7 3.5-15.5 5.4-23.6z"/>
	<path id="Layer" class="s22" d="m135.1 193.6c-2.5 1.6-5 2.9-8.2 4.2-4-0.4-7.2-0.6-10.3-1.5-4.6-1.4-9-1.8-13.2 0.7-3.4-3.7-6.6-7.5-10-11.1-4-4.3-4.1-6.9-0.4-11.5 3-3.7 13.3-5.3 16.3-1.6 5.2 6.4 12.8 7.8 19.7 10.3 6.8 2.6 7.4 3 6.1 10.5z"/>
	<path id="Layer" class="s23" d="m189 22.4c4.6-0.7 9.3-1.1 14.4-1.4 3.7 9.4 7 18.8 9.9 28.7-1.3 0.7-2.2 1-3.1 1.3-8.7-3.6-17.4-7.3-26.5-11 1.8-6 3.6-11.6 5.3-17.6z"/>
	<path id="Layer" class="s24" d="m210.1 51.3c1-0.6 1.9-0.9 3.2-1.2 5.2 4.6 10.2 9.3 15.4 14.2-0.9 5.2-2.2 10.1-3.6 15.4-9.2-2.4-18.2-5.3-28.1-8.4 4.6-7 8.8-13.3 13.1-20z"/>
	<path id="Layer" class="s25" d="m140.9 44.6c-1.3 1-2.8 1.7-4.6 2.4-6.9-3.7-13.4-7.5-19.9-11.1-1.6-0.9-3.2-1.7-5.1-2.7 2.2-2.5 4.9-4.6 7.1-7.2 4.6-5.2 9.1-10.2 16.9-5.2 0.7 0.5 1.9 0.2 3.3 0.2 1 7.8 1.6 15.5 2.3 23.6z"/>
	<path id="Layer" class="s26" d="m208.6 97.6c0.1 4.8-0.1 9.6-0.7 14.3-0.8 6.9-7.8 9.9-13.6 6.4-2.3-1.5-5-2.2-7.9-3.3 0-4.8-1.1-9.6 1.4-14.4 2.7-5.4 6.8-7.8 12.5-5.8 2.6 1 5.3 1.8 8.3 2.8z"/>
	<path id="Layer" class="s27" d="m103.3 197.4c4.3-2.9 8.7-2.5 13.3-1.1 3.1 0.9 6.3 1.1 10 1.7-1.6 5.2-3.6 10.4-5.6 15.6-0.9 2.4-1.9 4.8-3.1 7.8-6.2-4-11.8-7.6-17.7-11.3 0.8-4.2 1.8-8.3 3.1-12.7z"/>
	<path id="Layer" class="s28" d="m22 244c5.4 0.7 10.7 1.3 16.5 2.4 1.5 7.6 2.5 14.7 3.4 21.8-2.3 0.7-4.1 1.2-6.3 1.8-1.5 0-2.5 0-3.6-0.3-1.1-0.5-2-0.6-3.4-0.7-4.8 0.7-9.1 1.3-13.4 2-1.8-5.1-3.5-10.1-5-15.7 4.1-4.1 8-7.7 11.8-11.3z"/>
	<path id="Layer" class="s29" d="m32 270c1.1 0 2.1 0 3.8 0.3 3.8 1.5 6.8 2.7 9.9 3.9q2.2 0.9 4.3 1.8c-3.8 9.5-12.3 13.5-20.8 18-7.7-5.7-10.2-14.4-14-22.7 4.3-1 8.6-1.6 13.6-2 1.5 0.4 2.3 0.5 3.2 0.7z"/>
	<path id="Layer" class="s30" d="m22 243.6c-3.8 4-7.7 7.6-11.8 11.3-2.6-9.3-4.9-18.7-7.1-28.5 4.1 0.9 8.1 2.2 12.5 3.6 2.4 4.4 4.4 8.8 6.4 13.6z"/>
	<path id="Layer" class="s31" d="m349.2 125q-1.6-9.2-3.2-18.4c-0.6-3.8 0-7 3.3-9.5 3.4-2.6 3.3-6 1.8-9.8-2.5-6.4-4.7-13-7-19.9 7.7 9.6 16.3 19 22.9 29.6 5.3 8.4 8.3 18.2 12.1 27.4 0.7 1.7 0.6 3.8 0.5 6.1-10.4-1.6-20.4-3.5-30.4-5.5z"/>
	<path id="Layer" class="s32" d="m349.1 125.4c10.1 1.6 20.1 3.5 30.4 5.5 1.7 2.9 3.1 5.6 4 8.8-3.3-0.2-5.1 0.8-6.6 3.6-2.2 4.2-5.3 8-8 12-5.3-4.5-11-8.7-15.9-13.6-4.2-4.2-4.3-10.1-3.9-16.3z"/>
	<path id="Layer" class="s33" d="m310 54q-5-11.2-10-22.4c-0.2-0.6-0.6-1.2-1-2.1 0.8-0.4 2-0.8 2.5-0.4 13.1 11.3 26.2 22.7 39.4 34.4-4.3 1.8-8.6 3.2-13.6 4.3-2.7-2.2-4.8-4.3-7.2-6.1-3.3-2.7-6.7-5.1-10.1-7.7z"/>
	<path id="Layer" class="s0" d="m368.9 155.6c2.7-4.3 5.8-8.1 8-12.3 1.5-2.8 3.3-3.8 6.6-3.3 2.4 7.3 4.5 14.6 6.5 21.9 0.4 1.4 0.6 2.9 0.8 4.8-0.2 0.6-0.4 0.7-0.3 0.8 0.1 0.2 0.2 0.3 0.4 0.5 0 0.4 0 0.9 0 1.7-8.4 1.6-13.7-5.4-20.8-7.4-0.6-0.2-0.7-1.7-1.1-2.9 0-1.4-0.1-2.4-0.1-3.8z"/>
	<path id="Layer" class="s34" d="m291.9 24.6c-3.9 1.7-8.1 3.1-12.6 4.4-5.1-2.8-9.8-5.9-14.6-8.6-4-2.1-6.9-4.7-7.5-9.7 4.9 0.9 10 1.6 14.5 3.5 6.9 2.9 13.4 6.7 20.2 10.4z"/>
	<path id="Layer" class="s5" d="m390.9 167.7c-0.2 0.1-0.3 0-0.4-0.2-0.1-0.1 0.1-0.2 0.3-0.4 0.1 0.1 0.2 0.2 0.1 0.6z"/>
	<path id="Layer" class="s35" d="m235.3 179.8c0.3-3.2 1.9-6.7 1.4-9.9-1.4-8.8 0.7-16.5 5.2-23.8 0.8-1.2 0.8-2.9 1.5-4.7 6.6-2.9 12.5-6.5 19.7-5.6 1.3 0.2 3.3-1.3 4.2-2.5q6-7.9 11.6-16.1c1.4-2.3 2.8-3.3 5.6-2.3 3.6 1.2 7.4 1.7 11 2.8 4 1.4 7.2 0.7 10.1-2.6 1.4-1.6 3.8-2.2 5.8-3.2 5.9 3.7 11.8 7.5 18.2 11.5-3.4 4.6-6.5 8.7-9.6 13.3-0.7 0.3-1.3 0.3-2 0.3-8.4 0.3-8.7-2-10.6 7.9-1.4 7.1-6.5 6.1-10.8 6.9-4.5 0.8-9.2 1.3-13.8 1.1-4.3-0.2-6.1 1.6-6.7 5.4-0.3 2-0.7 3.9-1.1 6.3-4.8 0-9.8-0.1-14.5-1-7.4-1.5-13.6 2-20.1 4.2-1.7 0.5-2.2 4.7-3.2 7.3-0.6 1.5-1 3-1.9 4.7z"/>
	<path id="Layer" class="s36" d="m311.3 111.5c-1.9 1.4-4.3 2-5.7 3.6-2.9 3.3-6.1 4-10.1 2.6-3.6-1.1-7.4-1.6-11-2.8-2.8-1-4.2 0-5.6 2.3q-5.6 8.2-11.6 16.1c-0.9 1.2-2.9 2.7-4.2 2.5-7.2-0.9-13.1 2.7-19.7 5.2-3.9-1.7-7.5-3.2-10.8-5.3-5.7-3.5-14.8 0.1-16.7 6.8-0.8 2.5-2.1 4.9-3.5 7.4-0.3-0.4-0.2-0.9-0.1-1.4 0.2-8.7 5.3-13.5 12.9-16.8 1.3-0.5 2.3-2.8 2.7-4.5 0.5-1.9 0.3-4 0.1-5.9-0.4-4.1 1.7-5.4 5.3-5.3 3.5 0 7 0.1 10.5 0 4.1-0.1 7.1-1.5 8.5-6 2-6.8 2.8-6.8 9.6-5.2 4 1 8.1 1.6 12.1 2.8 3.1 0.9 4.3-0.4 4.9-3.1 0.1-0.5 0.1-1 0.1-1.5 0.2-7.9 3.7-12.1 11.9-13.5 3-0.5 6.1-4.3 7.8-7.4 2-3.7 3.9-4.2 7.4-2.6 3.6 1.7 7.3 3 11.4 4.5 2.3 7.1 4.8 14.2-2.2 20.3-1.9 1.7-2.8 4.6-4 7.2z"/>
	<path id="Layer" class="s11" d="m309.6 54c3.8 2.6 7.2 5 10.5 7.7 2.4 1.8 4.5 3.9 6.9 6.2-2.4 4.5-4.9 8.6-7.7 13-3.4-1.6-6.4-3.6-9.7-5-4.1-1.8-8.5-2.9-10.3-7.8-0.2-0.6-1.7-0.7-2.9-1.1 1-7.5 6.3-10.8 13.2-13z"/>
	<path id="Layer" class="s37" d="m50.4 276c-1.8-0.6-3.3-1.2-4.7-1.8-3.1-1.2-6.1-2.4-9.5-3.9 1.6-0.9 3.4-1.4 5.7-2.1-0.9-7.1-1.9-14.2-2.9-21.8 0.1-0.7 0.3-1 0.8-1.3 4.4-0.1 8.6 0.2 12.7-0.2 6.7-0.7 12.7 1.6 19.1 4.1-0.3 5.4-0.9 10.8-1.6 16.6-6.4 3.7-12.9 7-19.6 10.4z"/>
	<path id="Layer" class="s37" d="m32 269.7c-0.9 0.1-1.7 0-2.8-0.4 0.8-0.2 1.7-0.1 2.8 0.4z"/>
</svg>